<svg xmlns="http://www.w3.org/2000/svg">
    <symbol id="icon-google" viewBox="0 0 20 20">
        <g clip-path="url(#clip0_2_2044)">
            <path d="M16.4336 17.6055C14.6992 19.0703 12.4492 20 9.99999 20C6.35545 20 3.1562 17.9922 1.42186 15.0625L2.07116 12.0695L4.9492 11.5352C5.61717 13.6914 7.63276 15.2734 9.99999 15.2734C11.1484 15.2734 12.2148 14.9102 13.0937 14.2656L15.8594 14.6875L16.4336 17.6055Z" fill="#59C36A"/>
            <path d="M16.4336 17.6055L15.8594 14.6875L13.0937 14.2656C12.2148 14.9102 11.1484 15.2735 10 15.2735V20C12.4493 20 14.6992 19.0703 16.4336 17.6055Z" fill="#00A66C"/>
            <path d="M4.72656 10C4.72656 10.539 4.8086 11.0546 4.94922 11.5352L1.42188 15.0625C0.542969 13.5859 0 11.8515 0 10C0 8.1484 0.542969 6.41406 1.42188 4.9375L4.25285 5.42473L4.94922 8.46484C4.8086 8.94527 4.72656 9.4609 4.72656 10Z" fill="#FFDA2D"/>
            <path d="M20 10C20 13.0468 18.5899 15.7773 16.4336 17.6055L13.0938 14.2656C13.7734 13.7734 14.3477 13.1171 14.7227 12.3437H10C9.67184 12.3437 9.41406 12.0859 9.41406 11.7578V8.24219C9.41406 7.91402 9.67184 7.65625 10 7.65625H19.25C19.5312 7.65625 19.7773 7.85543 19.8242 8.13668C19.9414 8.74609 20 9.37887 20 10Z" fill="#4086F4"/>
            <path d="M14.7227 12.3437C14.3477 13.1171 13.7734 13.7734 13.0938 14.2656L16.4336 17.6055C18.5899 15.7773 20 13.0469 20 10C20 9.37887 19.9414 8.74609 19.8242 8.13668C19.7773 7.85543 19.5312 7.65625 19.25 7.65625H10V12.3437H14.7227Z" fill="#4175DF"/>
            <path d="M16.5976 2.79293C16.6094 2.95699 16.5391 3.10937 16.4336 3.22652L13.9258 5.72262C13.7266 5.93355 13.3985 5.95699 13.1641 5.78121C12.2382 5.08984 11.1484 4.72656 9.99999 4.72656C7.63276 4.72656 5.61717 6.30855 4.9492 8.46484L1.42186 4.9375C3.1562 2.00781 6.35546 0 9.99999 0C12.332 0 14.6055 0.859375 16.3867 2.35934C16.5156 2.46484 16.5859 2.62887 16.5976 2.79293Z" fill="#FF641A"/>
            <path d="M13.1641 5.78121C13.3984 5.95703 13.7265 5.93355 13.9257 5.72262L16.4336 3.22652C16.5391 3.10938 16.6094 2.95703 16.5976 2.79293C16.5859 2.62883 16.5156 2.46484 16.3867 2.35934C14.6055 0.859375 12.332 0 10 0V4.72656C11.1484 4.72656 12.2382 5.08984 13.1641 5.78121Z" fill="#F03800"/>
        </g>
        <defs>
            <clipPath id="clip0_2_2044">
                <rect width="20" height="20" fill="white"/>
            </clipPath>
        </defs>
    </symbol>
    <symbol id="icon-facebook" viewBox="0 0 20 20">
        <path d="M13.3309 3.32083H15.1567V0.140833C14.8417 0.0975 13.7584 0 12.4967 0C6.72006 0 8.29172 6.54167 8.06172 7.5H5.15589V11.055H8.06089V20H11.6226V11.0558H14.4101L14.8526 7.50083H11.6217C11.7784 5.1475 10.9876 3.32083 13.3309 3.32083Z" fill="#3B5999"/>
    </symbol>
    <symbol id="icon-greenshop" viewBox="0 0 150 35">
        <path d="M17.15 0C7.67748 0 0 7.67746 0 17.15C0 26.0201 6.73548 33.3175 15.3711 34.207C14.8496 29.9134 15.0436 26.4001 15.7067 23.5135C15.3347 21.7225 14.4898 19.0703 12.5734 17.1864C12.5734 17.1864 13.8348 19.0784 14.5181 21.6214C14.5181 21.6255 14.5221 21.6295 14.5221 21.6335C14.5949 21.9044 14.6596 22.1793 14.7162 22.4623C14.7283 22.527 14.7404 22.5917 14.7526 22.6604C14.8051 22.9515 14.8536 23.2426 14.886 23.5418C5.19513 22.3532 3.12921 13.6569 3.35561 10.3781C13.665 10.9482 15.7754 17.8292 16.0827 22.0985C19.4585 11.0412 30.1843 10.4024 31.0697 10.3781C31.4538 18.8763 25.1509 25.5026 17.6149 26.0807C17.6635 25.8503 17.7201 25.6198 17.7767 25.3934C17.7928 25.3247 17.813 25.26 17.8333 25.1913C17.8777 25.0296 17.9222 24.8679 17.9748 24.7061C17.995 24.6374 18.0192 24.5646 18.0394 24.4959C18.096 24.318 18.1567 24.1442 18.2173 23.9663C18.2335 23.9259 18.2456 23.8854 18.2618 23.845C18.3386 23.6348 18.4195 23.4326 18.5003 23.2305C18.5084 23.2143 18.5125 23.1941 18.5205 23.1779C18.5205 23.1779 18.5205 23.1779 18.5246 23.1779C20.4571 18.5043 24.0229 15.4439 24.0229 15.4439C17.0247 19.4868 15.8441 29.9983 15.6582 34.2231C16.1514 34.2676 16.6446 34.2999 17.15 34.2999C26.6225 34.2999 34.3 26.6225 34.3 17.15C34.3 7.67746 26.6225 0 17.15 0Z" fill="#46A358"/>
        <path d="M46.7037 10.7454C48.9718 10.7454 50.8235 11.7197 52.0242 13.4986L49.7764 15.4109C48.9718 14.287 47.9975 13.7048 46.6471 13.7048C44.5691 13.7048 43.2753 15.0713 43.2753 17.1534C43.2753 19.2719 44.6418 20.695 46.8372 20.695C48.0177 20.695 48.9556 20.2826 49.554 19.5912V19.0091H46.6673V16.2356H52.7762V20.133C52.194 21.1639 51.3693 21.9887 50.3019 22.6234C49.2346 23.242 48.0339 23.5614 46.7037 23.5614C42.9923 23.618 39.9237 20.7313 39.9763 17.1534C39.9197 13.5956 42.9923 10.6888 46.7037 10.7454Z" fill="#46A358"/>
        <path d="M61.9576 23.3316L59.168 19.4908H57.8379V23.3316H54.6157V10.9684H59.4672C62.2204 10.9684 64.2459 12.6543 64.2459 15.2215C64.2459 16.7376 63.5141 17.995 62.2972 18.7429L65.5558 23.3316H61.9576ZM57.8338 16.681H59.4833C60.3809 16.681 60.963 16.0988 60.963 15.2215C60.963 14.3442 60.3809 13.7782 59.4833 13.7782H57.8338V16.681Z" fill="#46A358"/>
        <path d="M66.8333 10.9684H75.4124V13.8712H70.0555V15.5773H73.876V18.2739H70.0555V20.4288H75.6388V23.3316H66.8333V10.9684Z" fill="#46A358"/>
        <path d="M77.6441 10.9684H86.2231V13.8712H80.8663V15.5773H84.6868V18.2739H80.8663V20.4288H86.4495V23.3316H77.6441V10.9684Z" fill="#46A358"/>
        <path d="M99.4192 10.9683V23.5579H98.3882L91.681 17.057V23.3315H88.4588V10.7419H89.4897L96.197 17.1499V10.9683H99.4192Z" fill="#46A358"/>
        <path d="M103.264 19.135C103.996 20.1094 104.764 20.7279 106.017 20.7279C106.862 20.7279 107.291 20.4288 107.291 19.8264C107.291 19.2846 107.008 19.1148 106.033 18.6822L104.76 18.1203C102.718 17.2187 101.631 16.0584 101.631 14.3927C101.631 12.2014 103.43 10.7379 105.957 10.7379C107.998 10.7379 109.442 11.7123 110.19 13.2283L108.035 14.8778C107.436 13.9803 106.874 13.5679 105.993 13.5679C105.318 13.5679 104.889 13.8307 104.889 14.3563C104.889 14.8051 105.152 15.0517 105.957 15.367L107.38 15.9654C109.535 16.867 110.545 17.9505 110.545 19.6929C110.545 22.0904 108.576 23.5539 106.009 23.5539C103.782 23.5539 101.982 22.4866 101.081 20.7805L103.264 19.135Z" fill="#46A358"/>
        <path d="M112.393 10.9684H115.615V15.4843H120.131V10.9684H123.353V23.3316H120.131V18.3871H115.615V23.3316H112.393V10.9684Z" fill="#46A358"/>
        <path d="M131.843 10.7419C135.441 10.6651 138.607 13.6084 138.53 17.1499C138.603 20.7279 135.441 23.6145 131.843 23.5579C128.229 23.6145 125.116 20.7279 125.193 17.1499C125.116 13.6084 128.229 10.6692 131.843 10.7419ZM131.859 13.7014C129.874 13.7014 128.488 15.1083 128.488 17.1499C128.488 18.1809 128.807 19.0218 129.426 19.6606C130.044 20.2791 130.869 20.5985 131.859 20.5985C133.772 20.5985 135.231 19.2118 135.231 17.1499C135.235 15.1083 133.772 13.7014 131.859 13.7014Z" fill="#46A358"/>
        <path d="M140.374 10.9684H145.226C147.979 10.9684 150.004 12.6543 150.004 15.2215C150.004 17.7524 147.926 19.4908 145.226 19.4908H143.596V23.3316H140.374V10.9684ZM145.242 16.681C146.139 16.681 146.721 16.0988 146.721 15.2215C146.721 14.3442 146.139 13.7782 145.242 13.7782H143.592V16.681H145.242Z" fill="#46A358"/>
    </symbol>
    <symbol id="icon-location" viewBox="0 0 20 20">
        <path fill="none" fill-rule="evenodd" clip-rule="evenodd" d="M12.0918 8.92542C12.0918 7.77436 11.1591 6.84166 10.0081 6.84166C8.85787 6.84166 7.92517 7.77436 7.92517 8.92542C7.92517 10.0756 8.85787 11.0083 10.0081 11.0083C11.1591 11.0083 12.0918 10.0756 12.0918 8.92542Z" stroke="#46A358" stroke-width="1.5" stroke-linecap="round" stroke-linejoin="round"/>
        <path fill="none" fill-rule="evenodd" clip-rule="evenodd" d="M9.99959 17.5C7.58457 17.5 3.75 13.2989 3.75 8.8322C3.75 5.33539 6.54758 2.5 9.99959 2.5C13.4516 2.5 16.25 5.33539 16.25 8.8322C16.25 13.2989 12.4154 17.5 9.99959 17.5Z" stroke="#46A358" stroke-width="1.5" stroke-linecap="round" stroke-linejoin="round"/>
    </symbol>
    <symbol id="icon-message" viewBox="0 0 20 20">
        <path fill="none" d="M14.6208 7.51582C14.6208 7.51582 11.9457 10.7263 9.98919 10.7263C8.03347 10.7263 5.32837 7.51582 5.32837 7.51582" stroke="#46A358" stroke-width="1.5" stroke-linecap="round" stroke-linejoin="round"/>
        <path fill="none" fill-rule="evenodd" clip-rule="evenodd" d="M2.04341 9.97397C2.04341 4.27556 4.02754 2.37665 9.97992 2.37665C15.9323 2.37665 17.9164 4.27556 17.9164 9.97397C17.9164 15.6716 15.9323 17.5713 9.97992 17.5713C4.02754 17.5713 2.04341 15.6716 2.04341 9.97397Z" stroke="#46A358" stroke-width="1.5" stroke-linecap="round" stroke-linejoin="round"/>
    </symbol>
    <symbol id="icon-calling" viewBox="0 0 20 20">
        <path fill="none" d="M11.9604 2.29176C15.0446 2.63426 17.4812 5.0676 17.8279 8.15176" stroke="#46A358" stroke-width="1.5" stroke-linecap="round" stroke-linejoin="round"/>
        <path fill="none" d="M11.9604 5.24426C13.4362 5.53093 14.5896 6.6851 14.8771 8.16093" stroke="#46A358" stroke-width="1.5" stroke-linecap="round" stroke-linejoin="round"/>
        <path fill="none" fill-rule="evenodd" clip-rule="evenodd" d="M6.41709 13.5825C0.668773 7.83352 1.48617 5.20096 2.09214 4.35263C2.16999 4.21552 4.08875 1.34323 6.14551 3.02839C11.2507 7.23288 4.78761 6.63843 9.07452 10.9261C13.3623 15.2128 12.767 8.74996 16.9716 13.8541C18.6568 15.9117 15.7844 17.8303 15.6482 17.9073C14.7998 18.5141 12.1663 19.3315 6.41709 13.5825Z" stroke="#46A358" stroke-width="1.5" stroke-linecap="round" stroke-linejoin="round"/>
    </symbol>
</svg>